<svg width="35" height="35" viewBox="0 0 35 35" fill="none" xmlns="http://www.w3.org/2000/svg">
<path d="M22.2359 23.4938L24.6859 21.0438C25.0158 20.7179 25.4333 20.4948 25.8877 20.4016C26.342 20.3084 26.8136 20.3491 27.2452 20.5188L30.2312 21.711C30.6674 21.888 31.0414 22.1902 31.3061 22.5795C31.5708 22.9688 31.7144 23.4277 31.7187 23.8985V29.3672C31.7161 29.6875 31.6488 30.0039 31.5208 30.2974C31.3927 30.5909 31.2066 30.8555 30.9736 31.0752C30.7406 31.2949 30.4656 31.4652 30.1651 31.5758C29.8645 31.6864 29.5447 31.735 29.2249 31.7188C8.30148 30.4172 4.0796 12.6985 3.28117 5.91723C3.2441 5.58422 3.27797 5.24714 3.38053 4.92816C3.4831 4.60919 3.65204 4.31554 3.87624 4.06654C4.10044 3.81754 4.37483 3.61883 4.68134 3.48349C4.98785 3.34815 5.31955 3.27924 5.6546 3.28129H10.9374C11.4088 3.28269 11.8691 3.42509 12.2589 3.69017C12.6487 3.95525 12.9503 4.3309 13.1249 4.76879L14.3171 7.75473C14.4924 8.18465 14.5371 8.65668 14.4457 9.11187C14.3542 9.56705 14.1307 9.98521 13.803 10.3141L11.353 12.7641C11.353 12.7641 12.764 22.3125 22.2359 23.4938Z" fill="#0094E7"/>
</svg>
