<svg width="291" height="35" viewBox="0 0 291 35" fill="none" xmlns="http://www.w3.org/2000/svg">
<path d="M28.3643 6.67188L33.125 21.5107L37.8711 6.67188H44.6387V28H39.4824V23.0195L39.9805 12.8242L34.8242 28H31.4258L26.2549 12.8096L26.7529 23.0195V28H21.6113V6.67188H28.3643ZM61.1475 18.9619H53.0615V24.0449H62.6123V28H47.9199V6.67188H62.6416V10.6416H53.0615V15.1387H61.1475V18.9619ZM64.707 28V6.67188H71.5771C73.4619 6.67188 75.1562 7.10156 76.6602 7.96094C78.1641 8.81055 79.3359 10.0166 80.1758 11.5791C81.0254 13.1318 81.4551 14.875 81.4648 16.8086V17.79C81.4648 19.7432 81.0498 21.4961 80.2197 23.0488C79.3994 24.5918 78.2373 25.8027 76.7334 26.6816C75.2393 27.5508 73.5693 27.9902 71.7236 28H64.707ZM69.8486 10.6416V24.0449H71.6357C73.1104 24.0449 74.2432 23.5225 75.0342 22.4775C75.8252 21.4229 76.2207 19.8604 76.2207 17.79V16.8672C76.2207 14.8066 75.8252 13.2539 75.0342 12.209C74.2432 11.1641 73.0908 10.6416 71.5771 10.6416H69.8486ZM89.5801 28H84.4531V6.67188H89.5801V28ZM105.532 24.0156H98.4863L97.2559 28H91.7627L99.585 6.67188H104.419L112.3 28H106.777L105.532 24.0156ZM99.7168 20.0459H104.302L102.002 12.6484L99.7168 20.0459ZM132.339 22.3311C132.339 21.5791 132.07 20.9932 131.533 20.5732C131.006 20.1533 130.073 19.7188 128.735 19.2695C127.397 18.8203 126.304 18.3857 125.454 17.9658C122.69 16.6084 121.309 14.7432 121.309 12.3701C121.309 11.1885 121.65 10.1484 122.334 9.25C123.027 8.3418 124.004 7.63867 125.264 7.14062C126.523 6.63281 127.939 6.37891 129.512 6.37891C131.045 6.37891 132.417 6.65234 133.628 7.19922C134.849 7.74609 135.796 8.52734 136.47 9.54297C137.144 10.5488 137.48 11.7012 137.48 13H132.354C132.354 12.1309 132.085 11.457 131.548 10.9785C131.021 10.5 130.303 10.2607 129.395 10.2607C128.477 10.2607 127.749 10.4658 127.212 10.876C126.685 11.2764 126.421 11.7891 126.421 12.4141C126.421 12.9609 126.714 13.459 127.3 13.9082C127.886 14.3477 128.916 14.8066 130.391 15.2852C131.865 15.7539 133.076 16.2617 134.023 16.8086C136.328 18.1367 137.48 19.9678 137.48 22.3018C137.48 24.167 136.777 25.6318 135.371 26.6963C133.965 27.7607 132.036 28.293 129.585 28.293C127.856 28.293 126.289 27.9854 124.883 27.3701C123.486 26.7451 122.432 25.8955 121.719 24.8213C121.016 23.7373 120.664 22.4922 120.664 21.0859H125.82C125.82 22.2285 126.113 23.0732 126.699 23.6201C127.295 24.1572 128.257 24.4258 129.585 24.4258C130.435 24.4258 131.104 24.2451 131.592 23.8838C132.09 23.5127 132.339 22.9951 132.339 22.3311ZM156.846 6.67188V20.6318C156.846 22.2139 156.509 23.5859 155.835 24.748C155.161 25.9004 154.194 26.7793 152.935 27.3848C151.675 27.9902 150.186 28.293 148.467 28.293C145.869 28.293 143.823 27.6191 142.329 26.2715C140.835 24.9238 140.073 23.0781 140.044 20.7344V6.67188H145.215V20.8369C145.273 23.1709 146.357 24.3379 148.467 24.3379C149.531 24.3379 150.337 24.0449 150.884 23.459C151.431 22.873 151.704 21.9209 151.704 20.6025V6.67188H156.846ZM165.21 20.7637V28H160.068V6.67188H168.579C170.21 6.67188 171.65 6.97461 172.9 7.58008C174.16 8.17578 175.132 9.03027 175.815 10.1436C176.509 11.2471 176.855 12.502 176.855 13.9082C176.855 15.9883 176.108 17.6533 174.614 18.9033C173.13 20.1436 171.089 20.7637 168.491 20.7637H165.21ZM165.21 16.7939H168.579C169.575 16.7939 170.332 16.5449 170.85 16.0469C171.377 15.5488 171.641 14.8457 171.641 13.9375C171.641 12.9414 171.372 12.1455 170.835 11.5498C170.298 10.9541 169.565 10.6514 168.638 10.6416H165.21V16.7939ZM184.751 20.7637V28H179.609V6.67188H188.12C189.751 6.67188 191.191 6.97461 192.441 7.58008C193.701 8.17578 194.673 9.03027 195.356 10.1436C196.05 11.2471 196.396 12.502 196.396 13.9082C196.396 15.9883 195.649 17.6533 194.155 18.9033C192.671 20.1436 190.63 20.7637 188.032 20.7637H184.751ZM184.751 16.7939H188.12C189.116 16.7939 189.873 16.5449 190.391 16.0469C190.918 15.5488 191.182 14.8457 191.182 13.9375C191.182 12.9414 190.913 12.1455 190.376 11.5498C189.839 10.9541 189.106 10.6514 188.179 10.6416H184.751V16.7939ZM217.212 17.7754C217.212 19.8555 216.826 21.6963 216.055 23.2979C215.283 24.8994 214.185 26.1348 212.759 27.0039C211.343 27.8633 209.727 28.293 207.91 28.293C206.094 28.293 204.482 27.8779 203.076 27.0479C201.67 26.208 200.571 25.0117 199.78 23.459C198.999 21.9062 198.589 20.124 198.55 18.1123V16.9111C198.55 14.8213 198.931 12.9805 199.692 11.3887C200.464 9.78711 201.562 8.55176 202.988 7.68262C204.424 6.81348 206.055 6.37891 207.881 6.37891C209.688 6.37891 211.299 6.80859 212.715 7.66797C214.131 8.52734 215.229 9.75293 216.011 11.3447C216.802 12.9268 217.202 14.7432 217.212 16.7939V17.7754ZM211.982 16.8818C211.982 14.7627 211.626 13.1562 210.913 12.0625C210.21 10.959 209.199 10.4072 207.881 10.4072C205.303 10.4072 203.94 12.3408 203.794 16.208L203.779 17.7754C203.779 19.8652 204.126 21.4717 204.819 22.5947C205.513 23.7178 206.543 24.2793 207.91 24.2793C209.209 24.2793 210.21 23.7275 210.913 22.624C211.616 21.5205 211.973 19.9336 211.982 17.8633V16.8818ZM227.788 20.4707H225.005V28H219.863V6.67188H228.257C230.786 6.67188 232.764 7.2334 234.189 8.35645C235.615 9.47949 236.328 11.0664 236.328 13.1172C236.328 14.6016 236.025 15.832 235.42 16.8086C234.824 17.7852 233.887 18.5762 232.607 19.1816L237.061 27.7803V28H231.553L227.788 20.4707ZM225.005 16.501H228.257C229.233 16.501 229.966 16.2471 230.454 15.7393C230.952 15.2217 231.201 14.5039 231.201 13.5859C231.201 12.668 230.952 11.9502 230.454 11.4326C229.956 10.9053 229.224 10.6416 228.257 10.6416H225.005V16.501ZM255.444 10.6416H249.043V28H243.901V10.6416H237.617V6.67188H255.444V10.6416ZM272.202 28H257.319V24.7773L264.175 17.5703C265.864 15.6465 266.709 14.1182 266.709 12.9854C266.709 12.0674 266.509 11.3691 266.108 10.8906C265.708 10.4121 265.127 10.1729 264.365 10.1729C263.613 10.1729 263.003 10.4951 262.534 11.1396C262.065 11.7744 261.831 12.5703 261.831 13.5273H256.88C256.88 12.2188 257.207 11.0127 257.861 9.90918C258.516 8.7959 259.424 7.92676 260.586 7.30176C261.748 6.67676 263.047 6.36426 264.482 6.36426C266.787 6.36426 268.56 6.89648 269.8 7.96094C271.05 9.02539 271.675 10.5537 271.675 12.5459C271.675 13.3857 271.519 14.2061 271.206 15.0068C270.894 15.7979 270.405 16.6328 269.741 17.5117C269.087 18.3809 268.027 19.5479 266.562 21.0127L263.809 24.1914H272.202V28ZM287.729 19.665H289.897V23.4736H287.729V28H282.793V23.4736H274.546L274.253 20.4561L282.793 6.71582V6.67188H287.729V19.665ZM278.955 19.665H282.793V13.1025L282.485 13.6006L278.955 19.665Z" fill="#0094E7"/>
<line x1="17.75" y1="1.75" x2="17.75" y2="33.25" stroke="#0094E7" stroke-width="1.5" stroke-linecap="round"/>
<path fill-rule="evenodd" clip-rule="evenodd" d="M9.05756 6.29934C9.34984 5.5179 10.0965 5 10.9308 5H14.0002V29H2C0.895429 29 0 28.1046 0 27V11C0 9.89543 0.895431 9 2 9H8.04741L9.05756 6.29934ZM14.0002 10.7686H14C9.58764 10.7686 6.0107 14.3842 6.0107 18.8443C6.0107 23.3043 9.58764 26.9199 14 26.9199H14.0002V24.9199H14C10.7124 24.9199 8.0107 22.2201 8.0107 18.8443C8.0107 15.4684 10.7124 12.7686 14 12.7686H14.0002V10.7686Z" fill="#0094E7"/>
<path d="M2.96777 7C2.96777 6.44772 3.41549 6 3.96777 6H5.92499C6.47727 6 6.92499 6.44772 6.92499 7V7.5H2.96777V7Z" fill="#0094E7"/>
</svg>
